<svg height="128" width="128" xmlns="http://www.w3.org/2000/svg" xmlns:xlink="http://www.w3.org/1999/xlink"><linearGradient id="a" gradientUnits="userSpaceOnUse" x1="30.181992" x2="101.979728" y1="23.926528" y2="97.823613"><stop offset="0" stop-color="#ff1300"/><stop offset="1" stop-color="#ff6e01"/></linearGradient><rect fill="#382c2c" height="124" rx="14" stroke="#1a1616" stroke-width="4" width="124" x="2" y="2"/><path d="m51.385426 16.053974-2.414244 7.55766-7.767607 3.358953-8.292417-1.574505-11.441461 17.844462 1.994388 3.463923 40.727367 14.170615 40.412468-14.170615 2.09934-3.568884-11.65137-17.739501-8.187455 1.574505-7.977537-3.358953-2.414252-7.55766zm-26.346837 47.865156 2.624186 10.811644 18.474275 8.397408 17.844472-6.612956 18.054399 6.717912 18.579229-8.502364 2.51925-10.706664-1.67949-11.966296-37.263458 12.806032-37.683308-12.806032zm10.181844-2.939086 17.634539 6.403019-.419875 1.889412a9.5644335 9.5644335 0 0 1 -17.949439-6.612947zm57.522167 0 .83975 1.679484a9.5644331 9.5644331 0 0 1 -17.949441 6.612947l-.41987-1.889412zm-71.062963 7.242759-4.408636 4.408628 6.612953 23.617665 21.308387 8.712334-1.154634-18.369317-20.153751-9.342111zm84.708733 0-2.20435 9.027199-20.153722 9.342111-1.154634 18.264317 21.203436-8.712284 6.7179-23.512715zm-42.301886 12.07126-15.955049 6.403008.944705 19.733869 15.115312 6.08809 14.800415-6.08809 1.049679-19.733869z" fill="url(#a)" stroke-width=".104967"/></svg>