<svg xmlns="http://www.w3.org/2000/svg" xmlns:xlink="http://www.w3.org/1999/xlink" xml:space="preserve" width="100" height="24" stroke-linejoin="round"><defs><linearGradient xlink:href="#a" id="b" x1="460.702" x2="521.851" y1="533.831" y2="595.225" gradientTransform="matrix(1.10482 0 0 1.10496 -437.362 -380.895)" gradientUnits="userSpaceOnUse"/><linearGradient id="a"><stop offset="0" stop-color="#ff1300"/><stop offset="1" stop-color="#ff6e01"/></linearGradient></defs><path fill="#e0e0e0" d="m 36.37734,4.8199458 q 1.889167,0 3.244922,0.56675 1.366867,0.5556372 2.100308,1.6446861 0.744554,1.0890489 0.744554,2.689284 0,1.3779801 -0.433397,2.3114511 -0.433397,0.93347 -1.211289,1.544671 -0.777892,0.600088 -1.833603,1.000147 l -1.211289,0.711216 h -5.22299 v -3.044892 h 3.800559 q 0.777892,0 1.300191,-0.255593 0.522299,-0.255593 0.777892,-0.744554 0.266706,-0.488961 0.266706,-1.177951 0,-1.0223724 -0.577863,-1.6113479 Q 37.544178,7.8648377 36.37734,7.8648377 H 33.899198 V 21.000101 h -3.76722 V 4.8199458 Z m -0.977921,8.9902102 h 3.989475 l 3.64498,7.023254 v 0.166691 h -4.033926 z m 20.469674,7.189945 h -8.5457 v -3.033779 h 8.5457 z m -7.278847,0 H 44.811913 V 4.8199458 h 3.778333 z m 6.167573,-6.84545 h -7.434426 v -2.933765 h 7.434426 z m 1.111274,-6.2898133 h -8.5457 V 4.8199458 h 8.5457 z m 3.311599,13.1352633 v -3.033779 h 3.533853 q 1.189063,0 2.000294,-0.533412 0.81123,-0.533411 1.222401,-1.589122 0.422285,-1.055711 0.422285,-2.611495 v -0.655652 q 0,-1.566897 -0.422285,-2.6114947 Q 65.526069,8.9205484 64.714839,8.3982494 63.903608,7.8648377 62.703432,7.8648377 H 59.114016 V 4.8199458 h 3.589416 q 2.200323,0 3.878348,0.9890343 1.689137,0.9779214 2.644833,2.733735 0.955696,1.7447009 0.955696,4.0561519 v 0.633426 q 0,2.300338 -0.955696,4.056152 -0.955696,1.7447 -2.633721,2.733735 -1.678024,0.977921 -3.878347,0.977921 z m 2.166985,0 H 57.569344 V 4.8199458 h 3.778333 z m 24.570278,-7.790033 q 0,2.489254 -0.900132,4.289519 -0.889019,1.789152 -2.478142,2.75596 -1.578009,0.966809 -3.633867,0.966809 -2.055858,0 -3.656093,-0.966809 -1.589122,-0.966808 -2.489255,-2.75596 -0.900132,-1.800265 -0.900132,-4.289519 v -0.588976 q 0,-2.489255 0.88902,-4.2784063 0.900132,-1.8002645 2.489254,-2.7670733 1.589123,-0.9779214 3.64498,-0.9779214 2.055858,0 3.64498,0.9779214 1.589123,0.9668088 2.489255,2.7670733 0.900132,1.7891513 0.900132,4.2784063 z m -3.822784,-0.611201 q 0,-1.611348 -0.377833,-2.7003972 -0.36672,-1.1001616 -1.089049,-1.6557988 -0.722328,-0.5556372 -1.744701,-0.5556372 -1.044598,0 -1.755813,0.5556372 -0.711216,0.5556372 -1.077936,1.6557988 -0.366721,1.0890492 -0.366721,2.7003972 v 0.611201 q 0,1.589122 0.366721,2.689284 0.377833,1.100161 1.089049,1.678024 0.722328,0.56675 1.766926,0.56675 1.022372,0 1.733588,-0.56675 0.722328,-0.577863 1.089049,-1.678024 0.36672,-1.100162 0.36672,-2.689284 z M 95.13263,21.000101 H 91.376523 V 4.8199458 H 95.13263 Z M 100.00001,7.8648377 H 86.598043 V 4.8199458 h 13.401967 z" aria-label="REDOT" font-family="Heebo" font-size="22.759" font-weight="800" paint-order="stroke fill markers" style="-inkscape-font-specification:&quot;Heebo Ultra-Bold&quot;;text-align:center" text-anchor="middle"/><g stroke-width=".28" paint-order="stroke fill markers"><path fill="#fff" d="m 1540.4621,105.5724 -0.1365,0.43497 -0.2659,0.11602 -0.4885,-0.0944 -0.7174,1.11337 0.1963,0.33783 0.097,0.0334 -0.01,0.0653 -0.06,0.59346 -0.4292,0.42867 0.3957,1.39849 2.1881,0.9006 2.1884,-0.90061 0.3957,-1.39849 -0.4295,-0.42907 -0.066,-0.65835 0.097,-0.0334 0.1962,-0.33782 -0.7178,-1.11337 -0.4881,0.0944 -0.2659,-0.11602 -0.1365,-0.43497 z" color="#000" style="-inkscape-stroke:none" transform="translate(-6909.577 -474.152)scale(4.49159)"/><path fill="url(#b)" d="m 90.070645,198.67313 -2.273159,7.18079 c -2.47603,1.0707 -4.952097,2.14139 -7.427805,3.2128 -2.626963,-0.55317 -5.260586,-1.19397 -7.922589,-1.51501 -0.420232,0.47286 -11.052927,16.8237 -11.049924,16.99265 0.489877,1.1994 1.331139,2.23115 1.967431,3.35356 l 38.673171,13.58306 38.67315,-13.58306 c 0.63632,-1.12241 1.47756,-2.15416 1.96744,-3.35356 0.002,-0.16893 -10.62969,-16.51979 -11.04993,-16.99265 -2.662,0.32104 -5.2956,0.96184 -7.92258,1.51501 -2.47573,-1.07141 -4.95181,-2.1421 -7.42783,-3.2128 l -2.27314,-7.18079 z m -23.760747,34.16494 c -0.04793,-0.0147 -0.144336,0.0568 -0.147915,0.0809 -0.465814,3.79785 -1.376174,11.3961 -1.376174,11.3961 l 2.356393,10.18593 17.827373,8.09853 17.068085,-6.38206 17.06811,6.38206 17.82736,-8.09853 2.3564,-10.18593 c 0,0 -0.91036,-7.59825 -1.37618,-11.3961 -0.005,-0.0324 -0.17438,-0.14959 -0.17438,-0.0311 -11.6705,4.14813 -23.84422,8.16548 -35.70141,12.25705 -11.857158,-4.09157 -24.030878,-8.10892 -35.701425,-12.25705 0,-0.0296 -0.01049,-0.0445 -0.02649,-0.0498 z m 8.965805,9.07846 c 5.599229,1.93127 11.244326,3.84918 16.889166,5.76686 a 9.0890898,9.0865953 0 0 1 -0.427095,1.73667 9.0890898,9.0865953 0 0 1 -11.674604,5.37645 9.0890898,9.0865953 0 0 1 -5.377913,-11.67142 9.0890898,9.0865953 0 0 1 0.590446,-1.20856 z m 53.524117,0 a 9.0890898,9.0865953 0 0 1 0.59048,1.20856 9.0890898,9.0865953 0 0 1 -5.37796,11.67142 9.0890898,9.0865953 0 0 1 -11.67461,-5.37645 9.0890898,9.0865953 0 0 1 -0.42707,-1.73667 c 5.64484,-1.91768 11.28995,-3.83559 16.88916,-5.76686 z m -67.097679,6.4466 -4.281035,4.24098 6.413371,22.48263 20.270118,8.31238 -1.090685,-17.4896 -19.223008,-8.94312 z m 80.671269,0 -2.08881,8.60327 -19.22298,8.94312 -1.09069,17.4896 20.27012,-8.31238 6.41337,-22.48264 z m -40.33564,11.58042 -15.200246,6.01419 0.922632,18.89339 14.277614,5.8151 14.2776,-5.8151 0.92265,-18.89339 z" style="font-variation-settings:normal;-inkscape-stroke:none" transform="translate(-11.417 -46.548)scale(.2393)"/></g></svg>