<svg xmlns="http://www.w3.org/2000/svg" width="100" height="24" fill-rule="evenodd" stroke-linejoin="round" stroke-miterlimit="2" clip-rule="evenodd"><linearGradient id="a" x1="0" x2="1" y1="0" y2="0" gradientTransform="rotate(45.527 1.785 11.592)scale(24.4567)" gradientUnits="userSpaceOnUse"><stop offset="0" stop-color="#ff1300"/><stop offset="1" stop-color="#ff6e01"/></linearGradient><text x="41.364" y="22.227" fill="#999" font-family="Arial-BoldMT, Arial, sans-serif" font-size="10.393" font-weight="700">ENGINE</text><text x="33.915" y="13.775" fill="#999" font-family="Arial-BoldMT, Arial, sans-serif" font-size="16.359" font-weight="700">REDOT</text><path fill="url(#a)" fill-rule="nonzero" d="m13.876.331-.569 1.797-1.859.804c-.657-.139-1.316-.299-1.982-.379-.105.118-2.766 4.209-2.765 4.252.123.3.333.558.492.839l9.677 3.398 9.677-3.398c.159-.281.37-.539.492-.839 0-.043-2.659-4.134-2.765-4.252-.666.08-1.325.24-1.982.379l-1.859-.804-.568-1.797zm-5.945 8.549c-.012-.005-.036.014-.036.02-.116.95-.345 2.852-.345 2.852l.59 2.548 4.461 2.027 4.27-1.597 4.271 1.597 4.461-2.027.589-2.548s-.227-1.902-.344-2.852c0-.008-.043-.037-.043-.008-2.92 1.038-5.966 2.043-8.933 3.067-2.967-1.024-6.013-2.029-8.933-3.067 0-.007 0-.011-.012-.012zm2.096 2.164 4.176 1.542a2.331 2.331 0 0 1 -.109.443 2.28 2.28 0 0 1 -2.922 1.345 2.278 2.278 0 0 1 -1.145-3.33zm13.687 0a2.272 2.272 0 0 1 -1.934 3.471c-.95 0-1.804-.595-2.133-1.486a2.258 2.258 0 0 1 -.109-.443zm-16.937 1.72-1.071 1.062 1.605 5.625 5.072 2.08-.273-4.376-4.81-2.238zm20.186 0-.523 2.153-4.81 2.238-.273 4.376 5.072-2.08 1.605-5.625zm-10.093 2.898-3.803 1.505.231 4.727 3.572 1.456 3.573-1.456.231-4.727z"/></svg>