<svg xmlns="http://www.w3.org/2000/svg" xmlns:xlink="http://www.w3.org/1999/xlink" width="1024" height="1024" viewBox="0 0 270.933 270.933"><defs><linearGradient xlink:href="#a" id="b" x1="460.702" x2="521.851" y1="533.831" y2="595.225" gradientTransform="matrix(1.10482 0 0 1.10496 -437.362 -380.895)" gradientUnits="userSpaceOnUse"/><linearGradient id="a"><stop offset="0" stop-color="#ff1300"/><stop offset="1" stop-color="#ff6e01"/></linearGradient></defs><g stroke-width=".28" paint-order="stroke fill markers"><path fill="#fff" d="m 1540.4621,105.5724 -0.1365,0.43497 -0.2659,0.11602 -0.4885,-0.0944 -0.7174,1.11337 0.1963,0.33783 0.097,0.0334 -0.01,0.0653 -0.06,0.59346 -0.4292,0.42867 0.3957,1.39849 2.1881,0.9006 2.1884,-0.90061 0.3957,-1.39849 -0.4295,-0.42907 -0.066,-0.65835 0.097,-0.0334 0.1962,-0.33782 -0.7178,-1.11337 -0.4881,0.0944 -0.2659,-0.11602 -0.1365,-0.43497 z" color="#000" style="-inkscape-stroke:none" transform="translate(-70740.898 -4841.975)scale(45.98683)"/><path fill="url(#b)" d="m 90.070645,198.67313 -2.273159,7.18079 c -2.47603,1.0707 -4.952097,2.14139 -7.427805,3.2128 -2.626963,-0.55317 -5.260586,-1.19397 -7.922589,-1.51501 -0.420232,0.47286 -11.052927,16.8237 -11.049924,16.99265 0.489877,1.1994 1.331139,2.23115 1.967431,3.35356 l 38.673171,13.58306 38.67315,-13.58306 c 0.63632,-1.12241 1.47756,-2.15416 1.96744,-3.35356 0.002,-0.16893 -10.62969,-16.51979 -11.04993,-16.99265 -2.662,0.32104 -5.2956,0.96184 -7.92258,1.51501 -2.47573,-1.07141 -4.95181,-2.1421 -7.42783,-3.2128 l -2.27314,-7.18079 z m -23.760747,34.16494 c -0.04793,-0.0147 -0.144336,0.0568 -0.147915,0.0809 -0.465814,3.79785 -1.376174,11.3961 -1.376174,11.3961 l 2.356393,10.18593 17.827373,8.09853 17.068085,-6.38206 17.06811,6.38206 17.82736,-8.09853 2.3564,-10.18593 c 0,0 -0.91036,-7.59825 -1.37618,-11.3961 -0.005,-0.0324 -0.17438,-0.14959 -0.17438,-0.0311 -11.6705,4.14813 -23.84422,8.16548 -35.70141,12.25705 -11.857158,-4.09157 -24.030878,-8.10892 -35.701425,-12.25705 0,-0.0296 -0.01049,-0.0445 -0.02649,-0.0498 z m 8.965805,9.07846 c 5.599229,1.93127 11.244326,3.84918 16.889166,5.76686 a 9.0890898,9.0865953 0 0 1 -0.427095,1.73667 9.0890898,9.0865953 0 0 1 -11.674604,5.37645 9.0890898,9.0865953 0 0 1 -5.377913,-11.67142 9.0890898,9.0865953 0 0 1 0.590446,-1.20856 z m 53.524117,0 a 9.0890898,9.0865953 0 0 1 0.59048,1.20856 9.0890898,9.0865953 0 0 1 -5.37796,11.67142 9.0890898,9.0865953 0 0 1 -11.67461,-5.37645 9.0890898,9.0865953 0 0 1 -0.42707,-1.73667 c 5.64484,-1.91768 11.28995,-3.83559 16.88916,-5.76686 z m -67.097679,6.4466 -4.281035,4.24098 6.413371,22.48263 20.270118,8.31238 -1.090685,-17.4896 -19.223008,-8.94312 z m 80.671269,0 -2.08881,8.60327 -19.22298,8.94312 -1.09069,17.4896 20.27012,-8.31238 6.41337,-22.48264 z m -40.33564,11.58042 -15.200246,6.01419 0.922632,18.89339 14.277614,5.8151 14.2776,-5.8151 0.92265,-18.89339 z" style="font-variation-settings:normal;-inkscape-stroke:none" transform="translate(-114.537 -463.985)scale(2.45004)"/></g></svg>