<svg xmlns="http://www.w3.org/2000/svg" xmlns:xlink="http://www.w3.org/1999/xlink" width="4371.184" height="1673.563" viewBox="0 0 1156.542 442.797"><defs><linearGradient xlink:href="#a" id="b" x1="460.702" x2="521.851" y1="533.831" y2="595.225" gradientTransform="matrix(3.5811 0 0 3.58154 -1531.388 -1806.268)" gradientUnits="userSpaceOnUse"/><linearGradient id="a"><stop offset="0" stop-color="#ff1300"/><stop offset="1" stop-color="#ff6e01"/></linearGradient></defs><path fill="url(#b)" d="m178.202 72.308-7.369 23.275q-12.038 5.205-24.076 10.414c-8.514-1.793-17.05-3.87-25.68-4.91-1.361 1.532-35.826 54.53-35.816 55.078 1.588 3.888 4.315 7.232 6.377 10.87l125.353 44.027 125.353-44.027c2.062-3.638 4.79-6.982 6.377-10.87.008-.547-34.454-53.546-35.817-55.079-8.628 1.041-17.164 3.118-25.68 4.911q-12.037-5.208-24.075-10.414l-7.369-23.275zm-77.017 110.74c-.155-.048-.468.184-.48.262-1.51 12.31-4.46 36.939-4.46 36.939l7.638 33.016 57.784 26.25 55.324-20.687 55.323 20.687 57.785-26.25 7.638-33.016s-2.951-24.629-4.461-36.939c-.014-.105-.565-.485-.565-.1-37.828 13.445-77.287 26.466-115.72 39.728-38.434-13.262-77.893-26.283-115.721-39.729 0-.096-.034-.144-.086-.161zm29.061 29.426c18.15 6.26 36.447 12.477 54.744 18.693a29.46 29.453 0 0 1-1.385 5.629 29.46 29.453 0 0 1-37.841 17.427 29.46 29.453 0 0 1-17.432-37.831 29.46 29.453 0 0 1 1.914-3.918m173.49 0a29.46 29.453 0 0 1 1.914 3.918 29.46 29.453 0 0 1-17.432 37.83 29.46 29.453 0 0 1-37.841-17.426 29.46 29.453 0 0 1-1.385-5.63c18.297-6.215 36.595-12.432 54.744-18.692M86.25 233.37l-13.877 13.746 20.788 72.874 65.703 26.943-3.536-56.69-62.308-28.987Zm261.482 0-6.77 27.886-62.308 28.987-3.535 56.69 65.702-26.943 20.788-72.874zm-130.741 37.536-49.27 19.494 2.991 61.24 46.279 18.848 46.279-18.848 2.99-61.24z" paint-order="stroke fill markers" style="font-variation-settings:normal;-inkscape-stroke:none"/><g fill="#ff1300" font-family="Heebo" font-weight="800" letter-spacing="0"><path d="M887.686 93.983c-12.768 0-24.09 3.033-33.956 9.106q-14.804 9.006-23.187 25.775c-5.52 11.11-8.277 24.398-8.277 39.855v5.478c0 15.458 2.795 28.782 8.382 39.961q8.387 16.664 23.187 25.67c9.935 6.004 21.285 9 34.052 9 12.768 0 24.052-2.996 33.851-9 9.868-6.004 17.559-14.56 23.081-25.67 5.589-11.179 8.384-24.503 8.384-39.96v-5.479c0-15.457-2.795-28.745-8.384-39.855q-8.386-16.77-23.186-25.775-14.802-9.108-33.947-9.106m-454.1 2.07v150.706h35.091V193.56h20.866l26.642 53.198h37.575v-1.55L522.144 184.3c4.054-1.952 7.753-4.167 11.02-6.687 4.83-3.795 8.589-8.584 11.28-14.38 2.692-5.797 4.032-12.975 4.032-21.532 0-9.936-2.305-18.29-6.93-25.052q-6.831-10.146-19.565-15.323c-8.42-3.519-18.492-5.275-30.225-5.275zm136.739 0v150.706h102.986V218.5h-67.798v-35.497h57.451v-27.334h-57.451v-31.253h67.798V96.052h-79.597zm118.83 0v150.706h47.92q20.495.002 36.124-9.106 15.63-9.215 24.534-25.467 8.9-16.353 8.9-37.778v-5.9q0-21.528-8.9-37.778-8.906-16.356-24.64-25.466-15.63-9.213-36.123-9.212h-33.434zm270.385 0v28.363h44.505V246.76h34.988V124.416h45.333V96.052h-80.321zm-71.854 26.708c6.347 0 11.761 1.72 16.245 5.17 4.486 3.45 7.867 8.596 10.144 15.427q3.523 10.143 3.523 25.15v5.69c0 9.867-1.146 18.22-3.415 25.052q-3.417 10.248-10.145 15.63-6.625 5.278-16.15 5.276-9.731.002-16.458-5.275-6.627-5.384-10.145-15.63c-2.28-6.832-3.417-15.186-3.417-25.054v-5.689c0-10.006 1.13-18.387 3.417-25.15 2.275-6.831 5.623-11.977 10.039-15.428 4.416-3.45 9.872-5.17 16.362-5.17m-419.009 1.655h23.08q10.867.001 16.25 5.486c3.586 3.658 5.388 8.658 5.388 15.006 0 4.279-.84 7.936-2.493 10.972q-2.373 4.557-7.239 6.94-4.868 2.378-12.117 2.377h-22.869zm255.664 0h12.629q11.18 0 18.74 4.967 7.557 4.863 11.384 14.592c2.624 6.486 3.929 14.592 3.929 24.322v6.111q.001 14.49-3.929 24.323-3.827 9.833-11.384 14.803-7.561 4.967-18.635 4.966H724.34z" font-size="16.115" style="-inkscape-font-specification:&quot;Heebo Ultra-Bold&quot;"/><text xml:space="preserve" x="753.302" y="349.557" stroke-width="23.733" font-size="100.544" paint-order="stroke fill markers" style="line-height:normal;-inkscape-font-specification:&quot;Heebo Ultra-Bold&quot;;text-align:end;text-decoration-color:#000" text-anchor="end" transform="scale(1.00494 .99508)"><tspan x="753.302" y="349.557" style="text-align:center" text-anchor="middle">ENGINE</tspan></text></g></svg>