<svg xmlns="http://www.w3.org/2000/svg" xmlns:xlink="http://www.w3.org/1999/xlink" xml:space="preserve" width="4371.184" height="1673.563" viewBox="0 0 1156.542 442.797"><defs><linearGradient xlink:href="#a" id="b" x1="460.702" x2="521.851" y1="533.831" y2="595.225" gradientTransform="matrix(3.94524 0 0 3.94572 -1372.125 -2233.847)" gradientUnits="userSpaceOnUse"/><linearGradient id="a"><stop offset="0" stop-color="#ff1300"/><stop offset="1" stop-color="#ff6e01"/></linearGradient></defs><g stroke-width="1.198" paint-order="stroke fill markers"><path fill="#fff" d="m502.457-178.547-9.149 29.155-17.822 7.776-32.742-6.327L394.66-73.32l13.157 22.643 6.502 2.239-.67 4.377-4.022 39.777-28.767 28.732 26.522 93.734 146.658 60.364 146.68-60.364 26.521-93.735-28.787-28.759-4.424-44.126 6.502-2.239 13.15-22.642-48.11-74.625-32.716 6.328-17.822-7.777-9.15-29.154z" color="#000" style="-inkscape-stroke:none" transform="translate(-245.754 221.398)scale(.83502)"/><path fill="url(#b)" d="m511.302-164.25-8.117 25.642q-13.263 5.734-26.525 11.472c-9.38-1.975-18.785-4.263-28.29-5.41-1.501 1.689-39.47 60.077-39.459 60.68 1.75 4.283 4.753 7.967 7.026 11.975l138.099 48.504L692.135-59.89c2.272-4.008 5.276-7.692 7.025-11.975.01-.603-37.957-58.991-39.458-60.68-9.506 1.147-18.91 3.435-28.291 5.41q-13.261-5.738-26.524-11.472l-8.118-25.642zm-84.848 122c-.171-.052-.515.203-.528.29-1.664 13.56-4.914 40.694-4.914 40.694l8.414 36.373 63.66 28.92 60.95-22.79 60.948 22.79 63.66-28.92 8.415-36.373s-3.25-27.133-4.914-40.695c-.018-.116-.623-.534-.623-.111-41.674 14.813-85.146 29.158-127.487 43.77-42.341-14.612-85.813-28.957-127.487-43.77 0-.106-.038-.159-.095-.178zM458.47-9.83c19.995 6.896 40.153 13.745 60.31 20.593a32.457 32.448 0 0 1-1.525 6.201 32.457 32.448 0 0 1-41.69 19.2 32.457 32.448 0 0 1-19.203-41.679 32.457 32.448 0 0 1 2.108-4.315m191.131 0a32.457 32.448 0 0 1 2.109 4.315 32.457 32.448 0 0 1-19.205 41.678 32.457 32.448 0 0 1-41.689-19.199 32.457 32.448 0 0 1-1.525-6.201c20.157-6.848 40.316-13.697 60.31-20.593M410 13.189l-15.287 15.144 22.901 80.284 72.384 29.683-3.895-62.454-68.644-31.935zm288.071 0-7.459 30.722-68.643 31.935-3.895 62.454 72.383-29.683 22.902-80.284zM554.036 54.542l-54.28 21.476 3.295 67.467 50.985 20.765 50.984-20.765 3.295-67.467z" style="font-variation-settings:normal;-inkscape-stroke:none" transform="translate(-245.754 221.398)scale(.83502)"/></g><path fill="#fff" d="M887.74 133.455c-14.89 0-28.082 3.455-39.59 10.354-11.507 6.82-20.52 16.572-27.04 29.272-3.157 6.192-5.529 12.987-7.137 20.369-.175-.53-.766-2.365-1.48-4.605-1.656-5.19-5.73-13.673-8.861-18.45-10.99-16.766-28.311-28.557-48.029-32.694-9.493-1.992-5.774-1.923-104.04-1.923h-91.678l-.19 74.094-.19 74.094-11.603-22.337c-6.381-12.285-11.644-22.518-11.694-22.74-.051-.22.803-1 1.898-1.732 3.208-2.145 9.052-8.231 11.63-12.11 4.314-6.492 6.655-12.425 8.129-20.598 1.08-5.995 1.158-17.844.153-23.403-.897-4.956-2.767-10.623-4.907-14.862-7.935-15.72-23.646-25.817-45.512-29.25-6.799-1.068-16.585-1.324-51.09-1.335l-33.38-.012v171.944h55.92v-53.067h3.994l13.314 26.538 13.314 26.54 118.306-.114c129.441-.123 119.966.04 129.644-2.224 18.597-4.349 34.941-15.716 45.61-31.72 4.695-7.043 6.912-11.906 10.827-23.745 1.629 7.316 4.01 14.07 7.177 20.24q9.776 18.93 27.039 29.16c3.728 2.194 7.645 3.997 11.714 5.486l.227.084q1.767.64 3.577 1.192c1.011.32 2.032.624 3.067.903l.086.022c3.186.855 6.462 1.553 9.867 2.017.78.107 2.32.09 3.37.164 2.36.201 4.755.333 7.206.348.174.001.279.013.452.014.05 0 .096.004.145.004 2.626 0 5.178-.146 7.697-.358.893-.066 2.276-.042 2.954-.133a80 80 0 0 0 9.523-1.876c.466-.115.934-.228 1.397-.352a66 66 0 0 0 1.993-.59c5.624-1.677 10.94-3.959 15.91-6.925q17.26-10.23 26.916-29.16 9.776-19.05 9.776-45.389v-6.233c0-12.215-1.614-23.21-4.769-33.038 1.08-.252 4.782-.278 16.816-.278h17.54v122.49h55.92v-122.49h45.268v-49.453H949.239l-.1 14.866-.091 13.7q-8.745-12.66-21.712-20.345c-11.507-6.899-24.711-10.354-39.597-10.354m.661 50.243c9.43.24 15.597 8.215 17.87 23.19.64 4.208.924 19.507.466 25-1.273 15.255-6.221 24.67-14.296 27.201-1.769.554-5.63.793-7.371.456-8.076-1.561-13.344-8.85-15.437-21.357-.867-5.177-1.065-9.234-.93-19.041.104-7.561.22-9.865.624-12.529 1.6-10.516 5.138-17.607 10.343-20.728 2.345-1.405 3.964-1.913 6.834-2.139a19 19 0 0 1 1.897-.053m-153.72 1.342 2.378.013c12.853.072 19.83 6.687 22.619 21.442.982 5.2.961 24.722-.032 30.09-2.294 12.386-7.13 18.84-15.645 20.879-2.593.621-8.69 1.118-9.069.739-.138-.138-.25-16.656-.25-36.707zm-118.687 0h62.771l-.096 36.614-.098 36.614-31.288.098-31.289.097v-14.84h57.441V195.31h-57.44v-5.136zm-136.946-.073 8.464.173c9.513.194 10.814.449 12.889 2.524 1.8 1.799 2.336 3.827 2.17 8.195-.207 5.43-1.767 7.633-6.057 8.553-1.048.225-5.407.41-9.686.41h-7.78v-9.928z" transform="translate(0 -49.993)"/><path fill="#ff1300" d="M887.748 143.975c-12.77 0-24.083 3.042-33.954 9.116-9.868 6.004-17.598 14.59-23.19 25.77-5.52 11.112-8.279 24.403-8.279 39.862v5.488q0 23.189 8.386 39.959 8.385 16.667 23.19 25.673 14.906 9.009 34.058 9.01 19.153-.001 33.855-9.01 14.804-9.006 23.084-25.673 8.385-16.77 8.385-39.96v-5.487c0-15.46-2.794-28.75-8.385-39.861-5.59-11.181-13.32-19.767-23.19-25.771-9.868-6.074-21.193-9.116-33.96-9.116m-454.162 2.07v150.738h35.096V243.57h20.86l26.657 53.214h37.58v-1.558l-31.622-60.917c4.055-1.952 7.756-4.16 11.023-6.68q7.246-5.695 11.282-14.391t4.034-21.534c0-9.939-2.307-18.293-6.931-25.057-4.556-6.764-11.082-11.866-19.571-15.316q-12.629-5.282-30.227-5.284zm136.752 0v150.738H673.35V268.52h-67.809v-35.51h57.46v-27.33h-57.46v-31.266h67.809v-28.369h-79.611zm118.848 0v150.738h47.938q20.496-.002 36.128-9.115 15.633-9.211 24.537-25.462c5.934-10.905 8.905-23.506 8.905-37.793v-5.9q-.001-21.533-8.905-37.784c-5.935-10.905-14.152-19.398-24.643-25.471q-15.63-9.214-36.127-9.213h-33.442Zm270.436 0v28.369h44.514v122.37h34.99v-122.37h45.342v-28.369h-80.332zm-71.874 26.713q9.527 0 16.257 5.178 6.73 5.175 10.147 15.422c2.347 6.764 3.515 15.147 3.515 25.155v5.698c0 9.869-1.13 18.215-3.41 25.048q-3.417 10.25-10.145 15.633c-4.418 3.52-9.804 5.284-16.153 5.284-6.489 0-11.975-1.764-16.461-5.284q-6.626-5.383-10.147-15.633-3.417-10.248-3.416-25.048v-5.698c0-10.008 1.13-18.391 3.416-25.155q3.417-10.246 10.042-15.422 6.624-5.177 16.355-5.178m-419.066 1.656h23.085c7.247 0 12.661 1.829 16.25 5.487s5.39 8.658 5.39 15.008q-.002 6.419-2.492 10.974c-1.588 3.036-3.997 5.352-7.24 6.94-3.244 1.587-7.289 2.378-12.119 2.378h-22.874zm255.707 0h12.63q11.178-.001 18.732 4.967c5.039 3.244 8.835 8.115 11.389 14.602q3.935 9.73 3.936 24.327v6.103c0 9.663-1.32 17.778-3.936 24.335q-3.83 9.835-11.39 14.805c-5.036 3.313-11.24 4.967-18.626 4.967h-12.736Z" paint-order="stroke fill markers" style="-inkscape-font-specification:&quot;Heebo Ultra-Bold&quot;;font-variation-settings:normal" transform="translate(0 -49.993)"/><g fill="#ff1300" stroke-linecap="square" stroke-width="12.774"><path fill="#fff" d="M742.33 268.99c-14.59.005-26.144 6.735-32.592 18.984-.573 1.087-1.126 1.976-1.229 1.976-.11 0-.21-4.108-.24-9.916l-.054-9.916h-29.8l-.052 12.63c-.03 6.947-.131 12.709-.227 12.805-.096.095-3.53-5.45-7.633-12.322-4.102-6.873-7.598-12.658-7.768-12.856-.294-.342-2.5-.358-42.151-.309l-41.84.052v84.26l43.247.052c34.462.04 43.28-.001 43.41-.206.09-.142.165-5.875.167-12.742 0-6.867.075-12.485.164-12.485s3.48 5.572 7.535 12.382c4.056 6.81 7.512 12.544 7.682 12.743.288.339 1.144.358 13.786.308l13.48-.052.053-9.857c.03-5.605.135-9.937.242-10.044.114-.114.486.404.942 1.31 4.693 9.318 12.549 15.688 22.542 18.278 2.101.545 5.326 1.091 7.767 1.316 1.82.168 9.193-.078 11.7-.39 9.012-1.126 17.54-4.774 23.273-9.957.754-.682 1.425-1.24 1.49-1.24s.12 2.289.12 5.086.077 5.202.167 5.344c.13.205 6.195.247 29.642.206l29.478-.053.053-12.69c.041-9.948.108-12.689.308-12.685.14.002 3.585 5.608 7.654 12.457s7.52 12.58 7.67 12.737c.231.241 6.96.277 44.082.234l43.81-.053V270.12l-90.526-.103-.188 25.373-15.479-25.117c-.138-.224-6.002-.246-28.39-.205l-28.18.052-.103 9.967-.103 9.968-.406-.925c-2.23-5.078-3.968-7.778-6.884-10.695-6.397-6.4-14.984-9.447-26.62-9.443"/><text xml:space="preserve" x="753.302" y="349.557" font-family="Heebo" font-size="100.544" font-weight="800" letter-spacing="0" paint-order="stroke fill markers" style="line-height:normal;-inkscape-font-specification:&quot;Heebo Ultra-Bold&quot;;text-align:end;text-decoration-color:#000" text-anchor="end" transform="scale(1.00494 .99508)"><tspan x="753.302" y="349.557" style="text-align:center" text-anchor="middle">ENGINE</tspan></text></g></svg>